<?xml version="1.0" encoding="utf-8"?>
<!-- Generator: Adobe Illustrator 23.1.1, SVG Export Plug-In . SVG Version: 6.00 Build 0)  -->
<svg version="1.1" id="图层_1" xmlns="http://www.w3.org/2000/svg" xmlns:xlink="http://www.w3.org/1999/xlink" x="0px" y="0px"
	 viewBox="0 0 144 144" style="enable-background:new 0 0 144 144;" xml:space="preserve">
<style type="text/css">
	.st0{fill-rule:evenodd;clip-rule:evenodd;}
	.st1{fill-rule:evenodd;clip-rule:evenodd;fill:#FFFFFF;}
</style>
<title>dcdrops</title>
<desc>Created with Sketch.</desc>
<rect id="Rectangle" y="0" class="st0" width="144" height="144"/>
<path id="Shape" class="st1" d="M83.7,68.2C83.2,69.4,83,70.7,83,72s0.3,2.6,0.8,3.8c1.5,3.5,4.8,5.9,8.8,5.9c3.3,0,6.1-1.6,7.9-4.2
	l18.5,8.2C114,95.4,104,102,92.5,102c-6.1,0-11.7-1.8-16.4-5c2.3-3.5,3.9-7.5,4.8-11.7c-4.8,9.9-14.8,16.7-26.4,16.7H27V42h27.3
	c6.2,0,12,1.9,16.8,5.3c-1.5,2.6-2.6,5.4-3.4,8.4c1.6-2.5,3.5-4.7,5.8-6.6c5.2-4.4,11.8-7.1,19.1-7.1c11.6,0,21.6,6.7,26.5,16.5
	l-18.6,8c-1.7-2.6-4.6-4.2-7.9-4.2C88.6,62.3,85.2,64.8,83.7,68.2L83.7,68.2z M44.8,91.8l1.3-3.9c1.2-3.5,4.5-6,8.2-6.2l0,0l0,0
	c5.3,0,9.5-4.3,9.5-9.7s-4.3-9.7-9.5-9.7s-9.5,4.3-9.5,9.7c0,0.1,0,0.1,0,0.2L44.8,91.8z"/>
</svg>
