<?xml version="1.0" encoding="UTF-8"?>
<svg width="50px" height="50px" viewBox="0 0 50 50" version="1.1" xmlns="http://www.w3.org/2000/svg" xmlns:xlink="http://www.w3.org/1999/xlink">
    <!-- Generator: Sketch 61 (89581) - https://sketch.com -->
    <title>address</title>
    <desc>Created with Sketch.</desc>
    <g id="Page-2" stroke="none" stroke-width="1" fill="none" fill-rule="evenodd">
        <g id="icon" transform="translate(-161.000000, -720.000000)" fill-rule="nonzero">
            <g id="Group-Copy-25" transform="translate(161.000000, 720.000000)">
                <g id="Group-2">
                    <g id="address" transform="translate(3.000000, 4.000000)">
                        <path d="M36.432,20.9 L34.98,20.9 L34.98,19.8088 L31.5656,15.664 L31.5656,14.08 L33.0176,14.08 L33.0176,15.1712 L36.432,19.316 L36.432,20.9 Z M29.6032,20.9 L28.16,20.9 L28.16,19.668 L26.7784,15.5232 L26.7784,14.08 L28.2392,14.08 L28.2392,15.3208 L29.6208,19.4656 L29.6032,20.9 Z M15.7784,20.9 L14.3264,20.9 L14.3264,19.2984 L17.8464,15.1536 L17.8464,14.08 L19.272,14.08 L19.272,15.664 L15.752,19.8088 L15.7784,20.9 Z M22.6952,20.9 L21.2344,20.9 L21.2344,19.448 L22.616,15.3032 L22.616,14.08 L24.0768,14.08 L24.0768,15.5408 L22.6952,19.6856 L22.6952,20.9 Z M22.616,5.1216 L17.4504,5.1216 L17.2392,4.752 C16.948452,4.16339186 16.363471,3.77676647 15.708,3.74 C15.507789,3.75348055 15.3113578,3.80110024 15.1272,3.8808 L14.476,4.1712 L14.1856,3.4496 C13.7629302,2.23815616 12.6261883,1.42167286 11.3432,1.408 C9.68,1.408 8.2896,3.3704 8.2896,4.4 L8.2896,5.1304 L2.0328,5.1304 L2.0328,3.6696 L6.9784,3.6696 C7.4184,1.9888 9.24,0 11.44,0 C13.0855857,0.0350726877 14.585008,0.952880479 15.3648,2.4024 C16.5447714,2.23348338 17.7136382,2.77481699 18.348,3.784 L22.748,3.784 L22.748,5.1216 L22.616,5.1216 Z M0,9.8472 L7.568,9.8472 L7.568,11.2992 L0,11.2992 L0,9.8472 Z M43.2696,5.1216 L39.996,5.1216 L39.8552,4.6112 C39.7587983,4.2095796 39.5015563,3.86523808 39.1437695,3.65888668 C38.7859828,3.45253527 38.3591075,3.40231604 37.9632,3.52 L37.4528,3.5904 L37.2328,3.1592 C36.815123,2.52558112 36.1084872,2.14254491 35.3496,2.1384 C34.7322946,2.07405106 34.1188941,2.29156211 33.6800281,2.73042811 C33.2411621,3.16929411 33.0236511,3.78269461 33.088,4.4 L33.088,5.1304 L28.8728,5.1304 L28.8728,3.6696 L31.68,3.6696 C31.9213725,1.87210488 33.5134087,0.568481038 35.3232,0.6864 C36.4539664,0.667585218 37.5284407,1.17877452 38.2272,2.068 C39.3918095,1.97484184 40.4923609,2.61274107 40.9904,3.6696 L43.2432,3.6696 L43.2432,5.1216 L43.2696,5.1216 Z" id="Shape" fill="#BCC0C4"></path>
                        <polygon id="Path" fill="#E9EAEB" points="15.0568 9.2664 35.7104 9.2664 35.7104 14.08 15.0568 14.08"></polygon>
                        <path d="M8.2192,20.9 L8.2192,25.0448 C8.29102377,26.901438 9.77715305,28.3913975 11.6336,28.468 C13.4826945,28.3714079 14.9602079,26.8938945 15.0568,25.0448 C15.1289338,26.9046832 16.6201168,28.3958662 18.48,28.468 C20.3290945,28.3714079 21.8066079,26.8938945 21.9032,25.0448 C21.9750238,26.901438 23.461153,28.3913975 25.3176,28.468 C27.1632592,28.3670648 28.6358159,26.8907129 28.732,25.0448 C28.8083001,26.9028593 30.2971407,28.3916999 32.1552,28.468 C34.0008592,28.3670648 35.4734159,26.8907129 35.5696,25.0448 C35.6417338,26.9046832 37.1329168,28.3958662 38.9928,28.468 C40.8384592,28.3670648 42.3110159,26.8907129 42.4072,25.0448 L42.4072,20.9 L8.2192,20.9 Z" id="Path" fill="#E9EAEB"></path>
                        <polygon id="Path" fill="#E9EAEB" points="29.524 31.8824 36.432 31.8824 36.432 41.4832 29.524 41.4832"></polygon>
                        <rect id="Rectangle" fill="#2A5082" x="2.6928" y="40.832" width="2.7632" height="1.452"></rect>
                        <path d="M36.432,13.7192 L36.432,8.536 L14.3264,8.536 L14.3264,13.728 L7.4888,18.9376 L7.4888,25.0448 C7.56184771,27.3029606 9.37543944,29.1165523 11.6336,29.1896 C13.0108348,29.1245658 14.2779511,28.4177169 15.0568,27.28 C15.8920524,28.4235487 17.2056193,29.1208743 18.6208,29.172 C19.9818124,29.10698 21.2332095,28.4063279 22,27.28 C22.7658809,28.4294014 24.0425019,29.1349889 25.4232,29.172 C26.8093774,29.1289469 28.0914337,28.4257783 28.8728,27.28 C29.6348335,28.4291508 30.9088381,29.1351069 32.2872,29.172 C33.6612623,29.1110339 34.9277658,28.4110383 35.7104,27.28 C36.4713902,28.4302799 37.7460338,29.1365902 39.1248,29.172 L39.1248,40.832 L37.1624,40.832 L37.1624,31.2312 L28.8024,31.2312 L28.8024,40.832 L6.8024,40.832 L6.8024,42.284 L41.888,42.284 L41.888,40.832 L40.5856,40.832 L40.5856,28.8904 C42.1867207,28.2685534 43.2702105,26.7606393 43.3488,25.0448 L43.3488,18.9376 L36.432,13.7192 Z M35.7104,40.832 L30.2544,40.832 L30.2544,32.6832 L35.7104,32.6832 L35.7104,40.832 Z M15.7784,10.032 L34.98,10.032 L34.98,13.376 L15.7784,13.376 L15.7784,10.032 Z M41.8176,25.08 C41.8176,26.5671923 40.6119923,27.7727999 39.1248,27.7727999 C37.6376077,27.7727999 36.4320001,26.5671923 36.432,25.08 L36.432,23.6632 L34.98,23.6632 L34.98,25.0448 C34.8406903,26.5241857 33.6309603,27.6738048 32.1464,27.7376 C30.691301,27.6628343 29.5283657,26.499899 29.4536,25.0448 L29.6032,25.0448 L29.6032,23.6632 L28.16,23.6632 L28.16,25.0448 L28.0192,25.0448 C27.9444343,26.499899 26.781499,27.6628343 25.3264,27.7376 C23.871301,27.6628343 22.7083657,26.499899 22.6336,25.0448 L22.7128,25.0448 L22.7128,23.6632 L21.2344,23.6632 L21.2344,25.0448 L21.164,25.0448 C21.0896375,26.4967145 19.9316634,27.6584854 18.48,27.7376 C17.024901,27.6628343 15.8619657,26.499899 15.7872,25.0448 L15.7872,23.6632 L14.3264,23.6632 L14.3264,25.0448 C14.2516343,26.499899 13.088699,27.6628343 11.6336,27.7376 C10.180159,27.6624656 9.0199764,26.4984792 8.9496,25.0448 L8.9496,21.6304 L41.8176,21.6304 L41.8176,25.08 Z M8.9496,20.1784 L8.9496,19.668 L15.3472,14.7928 L35.4904,14.7928 L41.888,19.668 L41.888,20.1784 L8.9496,20.1784 Z" id="Shape" fill="#2A5082"></path>
                        <polygon id="Path" fill="#FFFFFF" points="18.5416 31.8824 26.7608 31.8824 26.7608 38.0424 18.5416 38.0424"></polygon>
                        <path d="M27.4912,38.8696 L17.8112,38.8696 L17.8112,31.2312 L27.4912,31.2312 L27.4912,38.8696 Z M19.272,37.4088 L26.0392,37.4088 L26.0392,32.6832 L19.272,32.6832 L19.272,37.4088 Z" id="Shape" fill="#2A5082"></path>
                        <path d="M8.8704,9.8472 L10.252,9.8472 L10.252,11.2992 L8.8704,11.2992 L8.8704,9.8472 Z M23.9976,3.6872 L25.3792,3.6872 L25.3792,5.1216 L23.9976,5.1216 L23.9976,3.6872 Z" id="Shape" fill="#BCC0C4"></path>
                        <polygon id="Path" fill="#2A5082" points="42.6184 40.832 44 40.832 44 42.284 42.6184 42.284"></polygon>
                        <path d="M10.1112,41.5536 C10.4016,33.6336 17.9608,31.6624 17.9608,25.1944 C18.0229629,22.0924578 16.3657128,19.2101541 13.6536294,17.7033318 C10.9415461,16.1965096 7.6187716,16.3119323 5.01778373,18.0033139 C2.41679585,19.6946954 0.963543275,22.6850482 1.2408,25.7752 C1.8304,31.812 8.9584,33.8448 9.2488,41.5536 L10.1112,41.5536 Z" id="Path" fill="#E9EAEB"></path>
                        <path d="M10.8328,42.284 L8.5096,42.284 L8.5096,41.5536 C8.36,37.6992 6.3272,35.3056 4.4,33.044 C2.64,31.0112 0.88,28.8992 0.616,25.8456 C0.305635115,21.0618563 3.72898224,16.8449674 8.4744,16.1656 C11.0747872,15.8392907 13.6914163,16.6325964 15.6728,18.348 C17.6257712,20.0826241 18.7381862,22.573536 18.7264927,25.1856 C18.7264927,28.6 16.8344,30.8528 14.9424,33.0352 C12.98,35.3672 11.0176,37.6904 10.8768,41.5448 L10.8328,42.284 Z M9.68,17.6 C9.33770535,17.5647458 8.99269465,17.5647458 8.6504,17.6 C4.67877606,18.1610752 1.80105288,21.6740405 2.0328,25.6784 C2.2528,28.2216 3.7928,30.0784 5.456,32.076 C7.1192,34.0736 8.976,36.2208 9.6712,39.3448 C10.3312,36.2208 12.2144,34.0648 13.8952,32.076 C15.708,29.8936 17.3096,28.0016 17.3096,25.168 C17.3043992,22.9808188 16.3817849,20.8961576 14.7664,19.4216 C13.3445916,18.2234739 11.5391696,17.5768954 9.68,17.6 Z" id="Shape" fill="#2A5082"></path>
                        <path d="M6.83758588,25.0448 C6.83758588,26.5708732 8.07472678,27.808 9.6008,27.808 C11.1268732,27.808 12.364,26.5708732 12.364,25.0448 C12.364,23.5187268 11.1268732,22.2815859 9.6008,22.2815859 C8.86723668,22.2792526 8.16304123,22.5696207 7.64433098,23.088331 C7.12562073,23.6070412 6.83525258,24.3112367 6.83758588,25.0448 Z" id="Path" fill="#FFFFFF"></path>
                        <path d="M9.6008,28.5384 C7.65675768,28.5384 6.0808,26.9624423 6.0808,25.0184 C6.05889984,24.0782952 6.42271891,23.1701886 7.08765374,22.5052537 C7.75258858,21.8403189 8.66069519,21.4764998 9.6008,21.4984 C10.5409048,21.4764998 11.4490114,21.8403189 12.1139463,22.5052537 C12.7788811,23.1701886 13.1427002,24.0782952 13.1208,25.0184 C13.1208,26.9624423 11.5448423,28.5384 9.6008,28.5384 Z M9.6008,23.012 C8.48792595,23.0353383 7.59133833,23.931926 7.568,25.0448 C7.568,26.1674844 8.47811556,27.0776 9.6008,27.0776 C10.7234844,27.0776 11.6336,26.1674844 11.6336,25.0448 C11.6102617,23.931926 10.713674,23.0353383 9.6008,23.012 L9.6008,23.012 Z M0,40.832 L1.3816,40.832 L1.3816,42.284 L0,42.284 L0,40.832 Z" id="Shape" fill="#2A5082"></path>
                    </g>
                </g>
            </g>
        </g>
    </g>
</svg>