<?xml version="1.0" encoding="UTF-8"?>
<svg width="50px" height="50px" viewBox="0 0 50 50" version="1.1" xmlns="http://www.w3.org/2000/svg" xmlns:xlink="http://www.w3.org/1999/xlink">
    <!-- Generator: Sketch 61 (89581) - https://sketch.com -->
    <title>email_1</title>
    <desc>Created with Sketch.</desc>
    <g id="Page-2" stroke="none" stroke-width="1" fill="none" fill-rule="evenodd">
        <g id="icon" transform="translate(-333.000000, -716.000000)" fill-rule="nonzero">
            <g id="Group-Copy-26" transform="translate(333.000000, 716.000000)">
                <g id="Group-2">
                    <g id="email_1" transform="translate(2.000000, 2.000000)">
                        <path d="M43.1204,6.44 L20.1204,6.44 C19.5456449,6.42730757 18.9906662,6.65004158 18.5841539,7.05655391 C18.1776416,7.46306624 17.9549076,8.01804487 17.9676,8.5928 L17.9676,23 C17.9549076,23.5747551 18.1776416,24.1297338 18.5841539,24.5362461 C18.9906662,24.9427584 19.5456449,25.1654924 20.1204,25.1528 L43.1204,25.1528 C43.6951551,25.1654924 44.2501338,24.9427584 44.6566461,24.5362461 C45.0631584,24.1297338 45.2858924,23.5747551 45.2732,23 L45.2732,8.6204 C45.2936023,8.04092696 45.074279,7.47866139 44.6668955,7.06605506 C44.2595121,6.65344874 43.7000859,6.42698086 43.1204,6.44 Z" id="Path" fill="#FFFFFF"></path>
                        <path d="M43.1204,25.8796 L20.1204,25.8796 C18.5285457,25.8796 17.2366696,24.5918462 17.2316,23 L17.2316,16.56 L18.6576,16.56 L18.6576,23 C18.6626581,23.7890439 19.3037399,24.4260162 20.0928,24.426 L43.0928,24.426 C43.8782697,24.4209809 44.5137809,23.7854697 44.5188,23 L44.5188,8.6204 C44.5188,7.83284195 43.8803581,7.1944 43.0928,7.1944 L20.0928,7.1944 C19.7130098,7.19194969 19.3479331,7.34110613 19.0785132,7.60879905 C18.8090932,7.87649197 18.6575921,8.24060187 18.6576,8.6204 L18.6576,14.3796 L17.2316,14.3796 L17.2316,8.6204 C17.2366503,7.02705639 18.5270564,5.73665026 20.1204,5.7316 L43.1204,5.7316 C44.7122462,5.7366696 46,7.02854574 46,8.6204 L46,23 C46,24.5903592 44.7107592,25.8796 43.1204,25.8796 Z" id="Path" fill="#2A5082"></path>
                        <path d="M31.6204,17.9676 C30.5148198,17.9751406 29.4423662,17.5904916 28.5936,16.882 L19.6236,9.2 L20.5436,8.1236 L29.5412,15.8056 C30.7178746,16.8279842 32.4677254,16.8279842 33.6444,15.8056 L42.642,8.1236 L43.562,9.2 L34.6288,16.882 C33.7848773,17.586406 32.7196648,17.9707946 31.6204,17.9676 Z" id="Path" fill="#2A5082"></path>
                        <path d="M34.7024,15.5756 L35.7236,14.5544 L43.6448,22.4756 L42.6236,23.4968 L34.7024,15.5756 Z M23.92,18.17 L27.508,14.5544 L28.52,15.5756 L24.9136,19.182 L23.92,18.17 Z" id="Shape" fill="#2A5082"></path>
                        <path d="M25.8796,20.8472 L2.8796,20.8472 C2.30484487,20.8345076 1.74986624,21.0572416 1.34335391,21.4637539 C0.936841581,21.8702662 0.714107574,22.4252449 0.7268,23 L0.7268,37.3796 C0.706397677,37.959073 0.925721028,38.5213386 1.33310449,38.9339449 C1.74048794,39.3465513 2.29991408,39.5730191 2.8796,39.56 L25.8796,39.56 C26.4543551,39.5726924 27.0093338,39.3499584 27.4158461,38.9434461 C27.8223584,38.5369338 28.0450924,37.9819551 28.0324,37.4072 L28.0324,23 C28.0450924,22.4252449 27.8223584,21.8702662 27.4158461,21.4637539 C27.0093338,21.0572416 26.4543551,20.8345076 25.8796,20.8472 Z" id="Path" fill="#E9EAEB"></path>
                        <path d="M27.3424,37.3796 C27.3424079,37.7593981 27.1909068,38.123508 26.9214868,38.391201 C26.6520669,38.6588939 26.2869902,38.8080503 25.9072,38.8056 L2.9072,38.8056 C2.11964195,38.8056 1.4812,38.1671581 1.4812,37.3796 L1.4812,23 C1.48621913,22.2145303 2.12173033,21.5790191 2.9072,21.574 L25.9072,21.574 C26.6962601,21.5739838 27.3373419,22.2109561 27.3424,23 L27.3424,30.1944 L25.1528,30.1944 L25.1528,31.6204 L33.7732,31.6204 L33.7732,30.1944 L28.7684,30.1944 L28.7684,23 C28.7633304,21.4081538 27.4714543,20.1204 25.8796,20.1204 L2.8796,20.1204 C1.28924083,20.1204 0,21.4096408 0,23 L0,37.3796 C0,38.9714543 1.28775382,40.2633304 2.8796,40.2684 L25.8796,40.2684 C27.4687982,40.2534301 28.7534301,38.9687982 28.7684,37.3796 L28.7684,33.12 L27.3424,33.12 L27.3424,37.3796 Z" id="Path" fill="#2A5082"></path>
                        <path d="M3.404,37.904 L10.6444,30.6636 L11.3528,31.2708 C12.204432,31.9731912 13.275706,32.354161 14.3796,32.3472 C15.4960237,32.3606964 16.5766153,31.9534217 17.4064,31.2064 L18.078,30.5992 L25.3552,37.8764 L26.3764,36.8552 L19.136,29.6148 L25.6772,23.5796 L24.656,22.5032 L16.376,30.1944 C15.1919655,31.2063648 13.4476345,31.2063648 12.2636,30.1944 L3.2936,22.5032 L2.3736,23.5796 L9.568,29.7252 L2.3828,36.9196 L3.404,37.904 Z" id="Path" fill="#2A5082"></path>
                        <rect id="Rectangle" fill="#2A5082" x="12.2268" y="13.6528" width="8.6204" height="1.426"></rect>
                        <rect id="Rectangle" fill="#2A5082" x="9.3472" y="13.6528" width="1.426" height="1.426"></rect>
                        <rect id="Rectangle" fill="#2A5082" x="4.3056" y="5.7316" width="1.426" height="1.426"></rect>
                        <rect id="Rectangle" fill="#2A5082" x="7.1944" y="5.7316" width="7.9212" height="1.426"></rect>
                        <rect id="Rectangle" fill="#2A5082" x="40.2684" y="38.8056" width="1.426" height="1.426"></rect>
                        <rect id="Rectangle" fill="#2A5082" x="1.426" y="5.7316" width="1.426" height="1.426"></rect>
                        <rect id="Rectangle" fill="#2A5082" x="30.9212" y="38.8056" width="7.9212" height="1.426"></rect>
                        <rect id="Rectangle" fill="#2A5082" x="43.1204" y="38.8056" width="1.426" height="1.426"></rect>
                        <path d="M14.3796,43.8472 L34.5,43.8472 L34.5,45.2732 L14.3796,45.2732 L14.3796,43.8472 Z M35.926,43.8472 L37.352,43.8472 L37.352,45.2732 L35.926,45.2732 L35.926,43.8472 Z M38.8056,43.8472 L40.2316,43.8472 L40.2316,45.2732 L38.8056,45.2732 L38.8056,43.8472 Z M13.6528,0.7268 L33.7732,0.7268 L33.7732,2.1528 L13.6528,2.1528 L13.6528,0.7268 Z M10.7732,0.7268 L12.2268,0.7268 L12.2268,2.1528 L10.7732,2.1528 L10.7732,0.7268 Z M7.8936,0.7268 L9.3196,0.7268 L9.3196,2.1528 L7.8936,2.1528 L7.8936,0.7268 Z" id="Shape" fill="#BCC0C4"></path>
                        <polygon id="Path" fill="#2A5082" points="34.5 30.1944 35.926 30.1944 35.926 31.6204 34.5 31.6204"></polygon>
                    </g>
                </g>
            </g>
        </g>
    </g>
</svg>