<?xml version="1.0" encoding="utf-8"?>
<!-- Generator: Adobe Illustrator 24.0.1, SVG Export Plug-In . SVG Version: 6.00 Build 0)  -->
<svg version="1.1" id="图层_1" xmlns="http://www.w3.org/2000/svg" xmlns:xlink="http://www.w3.org/1999/xlink" x="0px" y="0px"
	 viewBox="0 0 1600 424" style="enable-background:new 0 0 1600 424;" xml:space="preserve">
<style type="text/css">
	.st0{fill-rule:evenodd;clip-rule:evenodd;fill:#F8F8FB;}
	.st1{opacity:0.5;fill:none;stroke:#C5C9E0;enable-background:new    ;}
	.st2{fill:none;stroke:#5468FF;}
	.st3{fill:none;stroke:#C5C9E0;stroke-dasharray:10;}
</style>
<path class="st0" d="M0,381.9c32.7,22.2,71.3,39.8,132.3,39.8c166.7,0,166.7-58.6,333.3-58.6c166.7,0,166.7,59.9,333.3,59.9
	s166.7-105.5,333.3-105.5c166.7,0,166.7,101.8,333.3,101.8c62.7,0,101-5.2,134.3-11.8v15.6L0,423V381.9z"/>
<path vector-effect="non-scaling-stroke" class="st1" d="M0,369.5c32.7,28.9,71.3,51.8,132.3,51.8C299,421.3,299,345,465.7,345
	c166.7,0,166.7,78,333.3,78s166.7-137.4,333.3-137.4c166.7,0,166.7,132.6,333.3,132.6c62.7,0,101.1-6.8,134.3-15.3"/>
<path vector-effect="non-scaling-stroke" class="st2" d="M0,368.5c32.7,28.7,71.4,51.3,132.3,51.3C299,419.8,299,335,465.7,335
	c166.7,0,166.7,87,333.3,87s166.7-147.9,333.3-147.9c166.7,0,166.7,137.8,333.3,137.8c62.4,0,101.2-9.5,134.3-21.5"/>
<path vector-effect="non-scaling-stroke" class="st1" d="M0,367.4c32.7,28.4,71.3,50.9,132.3,50.9c166.7,0,166.7-93.2,333.3-93.2
	c166.7,0,166.7,95.9,333.3,95.9s166.7-158.2,333.3-158.2c166.7,0,166.7,142.9,333.3,142.9c62.7,0,101-12.4,134.3-27.9"/>
<path vector-effect="non-scaling-stroke" class="st3" d="M0,367c32.7,28.3,71.3,50.7,132.3,50.7c166.7,0,166.7-102.2,333.3-102.2
	C632.3,315.6,632.3,421,799,421s166.7-169.6,333.3-169.6c166.7,0,166.7,148.9,333.3,148.9c62.4,0,101.2-15.1,134.3-34"/>
<path vector-effect="non-scaling-stroke" class="st1" d="M0,366c32.7,28.1,71.3,50.3,132.3,50.3c166.7,0,166.7-110.6,333.3-110.6
	C632.3,305.6,632.3,420,799,420s166.7-180,333.3-180c166.7,0,166.7,154,333.3,154c62.6,0,101.1-18,134.3-40.4"/>
<path vector-effect="non-scaling-stroke" class="st1" d="M0,365.7c32.7,27.9,71.3,50,132.3,50c166.7,0,166.7-119.4,333.3-119.4
	C632.3,296.3,632.3,420,799,420s166.7-191,333.3-191c166.7,0,166.7,159.7,333.3,159.7c62.1,0,101.2-20.5,134.3-46.2"/>
<path vector-effect="non-scaling-stroke" class="st1" d="M0,364.6c32.7,27.7,71.3,49.6,132.3,49.6c166.7,0,166.7-128,333.3-128
	C632.3,286.2,632.3,419,799,419s166.7-201.7,333.3-201.7c166.7,0,166.7,165.1,333.3,165.1c62.6,0,101.1-23.6,134.3-53.2"/>
<path vector-effect="non-scaling-stroke" class="st1" d="M0,364.4c32.7,27.5,71.3,49.3,132.3,49.3c166.7,0,166.7-136.6,333.3-136.6
	C632.3,277.1,632.3,419,799,419s166.7-212.3,333.3-212.3c166.7,0,166.7,170.4,333.3,170.4c62.3,0,101.2-26.1,134.3-58.9"/>
<path vector-effect="non-scaling-stroke" class="st1" d="M0,363.3c32.7,27.3,71.3,48.9,132.3,48.9c166.7,0,166.7-145.1,333.3-145.1
	C632.3,267.1,632.3,418,799,418s166.7-222.9,333.3-222.9c166.7,0,166.7,175.8,333.3,175.8c62.5,0,101.1-29.1,134.3-65.5"/>
<path vector-effect="non-scaling-stroke" class="st1" d="M0,362.1c32.7,27.1,71.3,48.6,132.3,48.6C299,410.7,299,257,465.7,257
	c166.7,0,166.7,160,333.3,160s166.7-233.5,333.3-233.5c166.7,0,166.7,181.1,333.3,181.1c62.4,0,101.2-31.7,134.3-71.5"/>
<path vector-effect="non-scaling-stroke" class="st1" d="M0,361c32.7,26.9,71.3,48.2,132.3,48.2c166.7,0,166.7-162.3,333.3-162.3
	C632.3,246.9,632.3,416,799,416s166.7-244.1,333.3-244.1c166.7,0,166.7,186.5,333.3,186.5c62.2,0,101.2-36,134.3-81.1"/>
<path vector-effect="non-scaling-stroke" class="st1" d="M0,361.2c32.7,26.8,71.3,48,132.3,48c166.7,0,166.5-188.4,333.2-188.4
	S632.3,416.5,799,416.5s166.8-286,333.5-286s166.5,222.9,333.2,222.9c62.2,0,101.2-45.7,134.3-103.1"/>
<path vector-effect="non-scaling-stroke" class="st1" d="M0,327c32.7,43.6,71.3,78,132.3,78C299,405,299,126.2,465.7,126.2
	C632.3,126.2,632.3,417,799,417S965.7,1.2,1132.3,1.2c166.7,0,166.7,313.2,333.3,313.2c62.4,0,101.2-60.8,134.3-137"/>
</svg>
