<?xml version="1.0" encoding="UTF-8"?>
<svg width="50px" height="50px" viewBox="0 0 50 50" version="1.1" xmlns="http://www.w3.org/2000/svg" xmlns:xlink="http://www.w3.org/1999/xlink">
    <!-- Generator: Sketch 61 (89581) - https://sketch.com -->
    <title>phone_1</title>
    <desc>Created with Sketch.</desc>
    <g id="Page-2" stroke="none" stroke-width="1" fill="none" fill-rule="evenodd">
        <g id="icon" transform="translate(-505.000000, -716.000000)" fill-rule="nonzero">
            <g id="Group-Copy-30" transform="translate(505.000000, 716.000000)">
                <g id="Group-2">
                    <g id="phone_1" transform="translate(0.000000, 5.000000)">
                        <path d="M36.39,15.62 L38,15.62 L41,11.08 L47,11.08 L47,12.59 L41.84,12.59 L38.74,17.13 L36.39,17.13 L36.39,15.62 Z M47,20.91 L33.37,20.91 L33.37,19.4 L47,19.4 L47,20.91 Z" id="Shape" fill="#2A5082"></path>
                        <path d="M49.24,11.84 C49.2961859,10.994873 48.877187,10.1887576 48.1532199,9.74913484 C47.4292527,9.30951212 46.5207473,9.30951212 45.7967801,9.74913484 C45.072813,10.1887576 44.6538141,10.994873 44.71,11.84 L44.71,11.84 C44.7892867,13.0326009 45.7797664,13.9594178 46.975,13.9594178 C48.1702336,13.9594178 49.1607133,13.0326009 49.24,11.84 L49.24,11.84 Z" id="Path" fill="#E9EAEB"></path>
                        <path d="M44,11.84 C44,10.1831458 45.3431458,8.84 47,8.84 C48.6568542,8.84 50,10.1831458 50,11.84 C50,13.4968542 48.6568542,14.84 47,14.84 C45.3431458,14.84 44,13.4968542 44,11.84 Z M45.51,11.84 C45.5101203,12.4574869 45.8837866,13.0135374 46.4554633,13.246938 C47.02714,13.4803385 47.6832048,13.3447001 48.1154607,12.9037411 C48.5477166,12.462782 48.6702516,11.8041441 48.425503,11.237233 C48.1807544,10.6703219 47.6173666,10.3078128 47,10.32 C46.5934169,10.3146498 46.201641,10.4724271 45.9122453,10.7580644 C45.6228497,11.0437016 45.4599648,11.4333817 45.46,11.84 L45.51,11.84 Z M38.11,24.69 L33.37,24.69 L33.37,23.17 L38.81,23.17 L41.81,27.71 L47,27.71 L47,29.22 L41,29.22 L38.11,24.69 Z" id="Shape" fill="#2A5082"></path>
                        <path d="M49.24,28.47 C49.2961859,27.624873 48.877187,26.8187576 48.1532199,26.3791348 C47.4292527,25.9395121 46.5207473,25.9395121 45.7967801,26.3791348 C45.072813,26.8187576 44.6538141,27.624873 44.71,28.47 L44.71,28.47 C44.7892867,29.6626009 45.7797664,30.5894178 46.975,30.5894178 C48.1702336,30.5894178 49.1607133,29.6626009 49.24,28.47 L49.24,28.47 Z" id="Path" fill="#E9EAEB"></path>
                        <path d="M44,28.47 C44,26.8131458 45.3431458,25.47 47,25.47 C48.6568542,25.47 50,26.8131458 50,28.47 C50,30.1268542 48.6568542,31.47 47,31.47 C45.3431458,31.47 44,30.1268542 44,28.47 Z M45.51,28.47 C45.4896551,29.0916385 45.8500898,29.6629515 46.4199071,29.9122636 C46.9897244,30.1615757 47.6539407,30.0385781 48.0967024,29.6017595 C48.539464,29.164941 48.6714259,28.5024474 48.4298365,27.9293132 C48.188247,27.3561789 47.6218566,26.9880571 47,27 C46.1719264,26.9886576 45.4871641,27.6422944 45.46,28.47 L45.51,28.47 Z" id="Shape" fill="#2A5082"></path>
                        <path d="M49.24,20.15 C49.2961859,19.304873 48.877187,18.4987576 48.1532199,18.0591348 C47.4292527,17.6195121 46.5207473,17.6195121 45.7967801,18.0591348 C45.072813,18.4987576 44.6538141,19.304873 44.71,20.15 L44.71,20.15 C44.6538141,20.995127 45.072813,21.8012424 45.7967801,22.2408652 C46.5207473,22.6804879 47.4292527,22.6804879 48.1532199,22.2408652 C48.877187,21.8012424 49.2961859,20.995127 49.24,20.15 L49.24,20.15 Z" id="Path" fill="#E9EAEB"></path>
                        <path d="M44,20.15 C44,18.4931458 45.3431458,17.15 47,17.15 C48.6568542,17.15 50,18.4931458 50,20.15 C50,21.8068542 48.6568542,23.15 47,23.15 C45.3431458,23.15 44,21.8068542 44,20.15 Z M45.51,20.15 C45.5060518,20.7683823 45.8771324,21.3275145 46.4484882,21.5640834 C47.019844,21.8006524 47.6775662,21.6674944 48.1119126,21.2273178 C48.5462591,20.7871411 48.670636,20.1277021 48.4264703,19.5595512 C48.1823047,18.9914003 47.6182747,18.6278074 47,18.64 C46.5951447,18.634664 46.2048919,18.7910753 45.915789,19.0745464 C45.6266861,19.3580174 45.4626286,19.7451181 45.46,20.15 L45.51,20.15 Z M34.2,28.47 L28.83,28.47 L28.83,27 L35,27 L40.45,34.87 L39.24,35.7 L34.2,28.47 Z" id="Shape" fill="#2A5082"></path>
                        <path d="M42.44,35.27 C42.44,34.0163136 41.4236864,33 40.17,33 C38.9163136,33 37.9,34.0163136 37.9,35.27 C37.9,36.5236864 38.9163136,37.54 40.17,37.54 C41.4236864,37.54 42.44,36.5236864 42.44,35.27 L42.44,35.27 Z" id="Path" fill="#E9EAEB"></path>
                        <path d="M37.15,35.27 C37.15,33.6131458 38.4931458,32.27 40.15,32.27 C41.8068542,32.27 43.15,33.6131458 43.15,35.27 C43.15,36.9268542 41.8068542,38.27 40.15,38.27 C38.4931458,38.27 37.15,36.9268542 37.15,35.27 Z M38.66,35.27 C38.6559567,35.8865839 39.0248025,36.4445215 39.5936873,36.6823495 C40.1625721,36.9201775 40.8187696,36.7907697 41.2547696,36.3547696 C41.6907697,35.9187696 41.8201775,35.2625721 41.5823495,34.6936873 C41.3445215,34.1248025 40.7865839,33.7559567 40.17,33.76 C39.3383195,33.7654538 38.6654538,34.4383195 38.66,35.27 Z M28.83,11.84 L34.28,11.84 L39.34,6 L40.48,7 L35,13.35 L28.83,13.35 L28.83,11.84 Z" id="Shape" fill="#2A5082"></path>
                        <path d="M42.4400223,6.54 C42.4400223,5.28631362 41.4236864,4.27 40.17,4.27 C38.9163136,4.27 37.9,5.28631362 37.9,6.54 C37.9,7.79368638 38.9163136,8.81002225 40.17,8.81002225 C40.772857,8.81267346 41.3517951,8.57437204 41.7780835,8.14808355 C42.204372,7.72179506 42.4426735,7.14285704 42.4400223,6.54 L42.4400223,6.54 Z" id="Path" fill="#E9EAEB"></path>
                        <path d="M37.15,6.55 C37.15,4.89314575 38.4931458,3.55 40.15,3.55 C41.8068542,3.55 43.15,4.89314575 43.15,6.55 C43.15,8.20685425 41.8068542,9.55 40.15,9.55 C38.4931458,9.55 37.15,8.20685425 37.15,6.55 Z M38.66,6.55 C38.6765334,7.3866643 39.3662291,8.0525943 40.2029588,8.03979112 C41.0396885,8.02698793 41.7086867,7.34026792 41.699614,6.50348946 C41.6905412,5.666711 41.0068106,4.9946579 40.17,5 C39.7633557,5.00259597 39.3747081,5.16802636 39.0909443,5.45930704 C38.8071806,5.75058772 38.6519657,6.14342682 38.66,6.55 L38.66,6.55 Z M33.37,20.91 L28.83,20.91 L28.83,19.4 L33.37,19.4 L33.37,20.91 Z" id="Shape" fill="#2A5082"></path>
                        <path d="M24.3,20.91 L22.79,20.91 L22.79,19.4 L24.3,19.4 L24.3,20.91 Z M27.3,20.91 L25.81,20.91 L25.81,19.4 L27.32,19.4 L27.3,20.91 Z M27.3,13.35 L25.81,13.35 L25.81,11.84 L27.32,11.84 L27.3,13.35 Z M27.3,28.47 L25.81,28.47 L25.81,27 L27.32,27 L27.3,28.47 Z" id="Shape" fill="#2A5082"></path>
                        <path d="M21.28,38 C25.7376019,37.990544 30.0377864,36.3508541 33.37,33.39 L34.37,34.52 C30.783018,37.7479896 26.1255841,39.5297164 21.3,39.5200395 L21.28,38 Z M17.65,0.5 L18,2 C9.38573863,3.58279735 3.1305623,11.0915329 3.13,19.85 L1.62,19.85 C1.6383193,10.3928668 8.36137319,2.27739005 17.65,0.5 Z M11.3,37.16 C7.34228201,34.8480434 4.28045942,31.2682831 2.61,27 L4,26.5 C5.5316515,30.4373548 8.35144281,33.7400354 12,35.87 L11.25,37.16 L11.3,37.16 Z" id="Shape" fill="#BCC0C4"></path>
                        <path d="M5.55,20.38 C5.55779129,13.9250245 9.38086396,8.08509971 15.2937957,5.49588995 C21.2067275,2.90668018 28.0911508,4.0579067 32.84,8.43 L31.78,9.57 C29.0768395,7.02157845 25.4949492,5.61389559 21.78,5.64 C14.6467548,5.64706067 8.54072314,10.75773 7.27766561,17.7782657 C6.01460807,24.7988015 9.95650521,31.7171835 16.64,34.21 L16.11,35.65 C9.77041656,33.23417 5.57275019,27.164249 5.55,20.38 L5.55,20.38 Z" id="Path" fill="#BCC0C4"></path>
                        <polygon id="Path" fill="#2A5082" points="34.88 17.13 33.37 17.13 33.37 15.62 34.88 15.62"></polygon>
                        <rect id="Rectangle" fill="#FFFFFF" x="14.29" y="8.79" width="18.86" height="21.65"></rect>
                        <path d="M33.18,9 L33.18,6.48 C33.1993259,5.82001815 32.9470289,5.18100952 32.4820452,4.71224549 C32.0170615,4.24348146 31.3801167,3.98601867 30.72,4 L16.72,4 C16.0625596,3.98632138 15.4278602,4.24077344 14.9619368,4.70481051 C14.4960134,5.16884757 14.2389886,5.80250951 14.25,6.46 L14.25,9 L33.18,9 Z" id="Path" fill="#E9EAEB"></path>
                        <path d="M14.29,30.31 L14.29,33.59 C14.2789886,34.2474905 14.5360134,34.8811524 15.0019368,35.3451895 C15.4678602,35.8092266 16.1025596,36.0636786 16.76,36.05 L30.76,36.05 C31.4165568,36.0637689 32.0502993,35.809015 32.5146571,35.3446571 C32.979015,34.8802993 33.2337689,34.2465568 33.22,33.59 L33.22,30.31 L14.29,30.31 Z" id="Path" fill="#E9EAEB"></path>
                        <path d="M30.72,3.2 L16.72,3.2 C14.9091439,3.20545426 13.4409667,4.66916889 13.43,6.48 L13.43,13.06 L3.12,13.06 L5,11.17 L3.86,10 L0,13.88 L3.86,17.74 L5,16.59 L3.12,14.7 L17.58,14.7 L17.58,13.06 L15.11,13.06 L15.11,9.77 L32.36,9.77 L32.36,29.48 L15.11,29.48 L15.11,18 L20.53,18 L19.47,19.07 L20.62,20.22 L23.62,17.22 L20.62,14.22 L19.47,15.37 L20.53,16.44 L10.19,16.44 L10.19,18 L13.47,18 L13.47,33.59 C13.4754909,35.4047375 14.9452625,36.8745091 16.76,36.88 L30.76,36.88 C32.555182,36.8473623 33.9948558,35.3854713 34,33.59 L34,6.48 C33.9890816,4.67304791 32.5269521,3.21091844 30.72,3.2 Z M32.36,33.59 C32.3545408,34.493476 31.623476,35.2245408 30.72,35.23 L16.72,35.23 C15.8126212,35.23 15.0754993,34.4973622 15.07,33.59 L15.07,31.13 L32.36,31.13 L32.36,33.59 Z M32.36,8.13 L15.11,8.13 L15.11,6.48 C15.1154993,5.57263783 15.8526212,4.84 16.76,4.84 L30.76,4.84 C31.663476,4.84545922 32.3945408,5.57652395 32.4,6.48 L32.36,8.13 Z" id="Shape" fill="#2A5082"></path>
                        <rect id="Rectangle" fill="#2A5082" x="21.68" y="31.95" width="4.11" height="1.64"></rect>
                        <polygon id="Path" fill="#2A5082" points="30.14 24.31 31.3 23.16 28.26 20.12 24.97 23.41 22.51 20.94 16.18 27.27 17.33 28.42 22.51 23.24 26.86 27.59 28.01 26.45 26.12 24.55 28.26 22.42"></polygon>
                    </g>
                </g>
            </g>
        </g>
    </g>
</svg>